<?xml version="1.0" encoding="UTF-8" standalone="no"?>
<!-- Created with Inkscape (http://www.inkscape.org/) -->
<svg xmlns:rdf="http://www.w3.org/1999/02/22-rdf-syntax-ns#" xmlns="http://www.w3.org/2000/svg" xmlns:cc="http://web.resource.org/cc/" xmlns:dc="http://purl.org/dc/elements/1.1/" xmlns:svg="http://www.w3.org/2000/svg" xmlns:inkscape="http://www.inkscape.org/namespaces/inkscape" xmlns:sodipodi="http://sodipodi.sourceforge.net/DTD/sodipodi-0.dtd" xmlns:ns1="http://sozi.baierouge.fr" xmlns:xlink="http://www.w3.org/1999/xlink" id="svg2433" viewBox="0 0 78.308 196.24" version="1.0" inkscape:version="0.91 r13725">
  <g id="layer1" transform="translate(-236.16 -372.21)">
    <path id="path2472" style="fill:#000000" d="m236.16 563.32c0-7.11 1.22-9.19 5.93-10.16l1.67-0.35 9.22-39.7c5.08-21.84 9.24-40.03 9.26-40.42 0.02-0.51-1.31-0.7-4.82-0.7-3.09 0-5.42-0.3-6.42-0.81-3.96-2.05-3.68-8.25 0.45-9.96l1.72-0.71-5.1-3.95c-5.04-3.9-5.1-3.97-5.1-6.42v-2.49l10.18-7.83 10.17-7.84-2.16-2.27c-4.79-5.01-8.12-12.82-9.23-21.59-0.57-4.53-0.83-5.36-1.69-5.36-0.57 0-1.03-0.2-1.04-0.43s-1-6.43-2.2-13.76-2.12-13.41-2.04-13.5 2.03 2.26 4.33 5.23c2.3 2.96 4.31 5.4 4.47 5.4 0.15 0.01 1.28-2.27 2.5-5.06s2.42-4.95 2.66-4.8 1.27 1.73 2.28 3.52 2.45 4.23 3.19 5.43l1.36 2.17 3.08-4.43c2.63-3.78 3.04-4.7 2.75-6.24-0.64-3.38 3.05-5.44 5.44-3.04 1.27 1.26 1.42 2.38 0.55 4-0.48 0.91-0.04 1.82 2.62 5.36 1.77 2.34 3.38 4.26 3.6 4.26 0.21 0 1.9-2.68 3.76-5.96 1.86-3.27 3.52-5.95 3.7-5.96 0.18 0 1.3 2.44 2.48 5.42l2.14 5.41 4.02-5.4c2.21-2.97 4.07-5.34 4.13-5.27s-0.92 6.32-2.19 13.89c-1.43 8.56-2.54 13.76-2.94 13.76-0.39 0-0.91 2.12-1.32 5.36-1.11 8.77-4.44 16.58-9.23 21.59l-2.16 2.27 10.17 7.84 10.18 7.83v2.49c0 2.45-0.06 2.53-5.06 6.39l-5.05 3.92 1.94 0.7c3.18 1.15 4.46 4.74 2.82 7.92-1.17 2.27-3.15 2.92-8.86 2.92-2.8 0-5.08 0.19-5.08 0.42 0.01 0.23 4.3 18.43 9.54 40.43l9.53 40 1.95 0.32c4.93 0.82 6.21 2.92 6.21 10.16v5.13h-39.15-39.16v-5.13z"/>
  </g>
  <metadata>
    <rdf:RDF>
      <cc:Work>
        <dc:format>image/svg+xml</dc:format>
        <dc:type rdf:resource="http://purl.org/dc/dcmitype/StillImage"/>
        <cc:license rdf:resource="http://creativecommons.org/licenses/publicdomain/"/>
        <dc:publisher>
          <cc:Agent rdf:about="http://openclipart.org/">
            <dc:title>Openclipart</dc:title>
          </cc:Agent>
        </dc:publisher>
        <dc:title>2D Chess set - Queen 1</dc:title>
        <dc:date>2006-12-26T00:00:00</dc:date>
        <dc:description/>
        <dc:source>https://openclipart.org/detail/18569/-by--18569</dc:source>
        <dc:creator>
          <cc:Agent>
            <dc:title>portablejim</dc:title>
          </cc:Agent>
        </dc:creator>
      </cc:Work>
      <cc:License rdf:about="http://creativecommons.org/licenses/publicdomain/">
        <cc:permits rdf:resource="http://creativecommons.org/ns#Reproduction"/>
        <cc:permits rdf:resource="http://creativecommons.org/ns#Distribution"/>
        <cc:permits rdf:resource="http://creativecommons.org/ns#DerivativeWorks"/>
      </cc:License>
    </rdf:RDF>
  </metadata>
</svg>
